<svg xmlns="http://www.w3.org/2000/svg" width="22" height="22" fill="none"><g stroke="#fff" clip-path="url(#a)"><circle cx="11" cy="11" r="10.8" fill="#4172F6" stroke-width=".4" transform="rotate(-180 11 11)"/><path fill="#fff" stroke-width=".1" d="M13.879 10.164a.258.258 0 0 0-.23.141.24.24 0 0 0-.022.137l.05-.006-.05.006c.006.047.026.091.057.127l.038-.033-.038.033 1.602 1.855a.253.253 0 0 0 .194.088.261.261 0 0 0 .194-.088l1.602-1.855-.038-.033.038.033a.244.244 0 0 0 .035-.264.258.258 0 0 0-.23-.141H13.88Zm-8.962 1.672h3.204a.26.26 0 0 0 .135-.038.25.25 0 0 0 .094-.103.24.24 0 0 0-.035-.264L6.713 9.576a.253.253 0 0 0-.194-.088.26.26 0 0 0-.194.088l-1.602 1.855a.244.244 0 0 0-.035.264.25.25 0 0 0 .094.103.26.26 0 0 0 .135.038Z"/><path fill="#fff" stroke-width=".1" d="M15.82 10.264h.059l-.01-.059a4.703 4.703 0 0 0-1.22-2.413 4.973 4.973 0 0 0-2.375-1.395 5.11 5.11 0 0 0-2.78.065c-.9.278-1.7.8-2.303 1.504a.44.44 0 0 0-.112.328.433.433 0 0 0 .165.307.462.462 0 0 0 .341.098.468.468 0 0 0 .31-.168A4.073 4.073 0 0 1 11 7.12c.928 0 1.827.31 2.545.875a3.86 3.86 0 0 1 1.398 2.23l.008.039h.87Zm-8.764 1.512-.008-.04h-.929l.01.059c.159.9.582 1.738 1.22 2.413a4.973 4.973 0 0 0 2.375 1.395 5.11 5.11 0 0 0 2.78-.065c.9-.278 1.7-.8 2.303-1.504a.44.44 0 0 0 .112-.328.432.432 0 0 0-.165-.307.463.463 0 0 0-.341-.098.468.468 0 0 0-.31.168 4.032 4.032 0 0 1-1.844 1.215 4.167 4.167 0 0 1-2.233.08 4.062 4.062 0 0 1-1.933-1.081 3.838 3.838 0 0 1-1.037-1.907Z"/></g><defs><clipPath id="a"><path fill="#fff" d="M22 22H0V0h22z"/></clipPath></defs></svg>