<svg xmlns="http://www.w3.org/2000/svg" width="14" height="14" fill="none"><g clip-path="url(#a)"><path fill="#fff" d="M6.646 10.854a.5.5 0 0 0 .708 0l3.182-3.182a.5.5 0 1 0-.708-.708L7 9.793 4.172 6.964a.5.5 0 1 0-.708.708l3.182 3.182ZM6.5 3.5v7h1v-7h-1Z"/><path fill="#4172F6" d="M14 7A7 7 0 1 1 0 7a7 7 0 0 1 14 0ZM7.437 3.937a.437.437 0 1 0-.875 0v5.07l-1.877-1.88a.438.438 0 0 0-.62.62l2.625 2.625a.438.438 0 0 0 .62 0l2.625-2.625a.438.438 0 1 0-.62-.62l-1.877 1.88v-5.07Z"/><circle cx="7" cy="7" r="6.8" stroke="#fff" stroke-width=".4"/></g><defs><clipPath id="a"><path fill="#fff" d="M0 0h14v14H0z"/></clipPath></defs></svg>