<svg xmlns="http://www.w3.org/2000/svg" width="20" height="20" fill="none"><path fill="#4172F6" d="M4.375 14.167h3.958c.92 0 1.667.746 1.667 1.666V8.958c0-2.465 0-3.698-.681-4.528a3 3 0 0 0-.416-.416c-.83-.68-2.062-.68-4.528-.68-.822 0-1.233 0-1.51.226a1 1 0 0 0-.138.139c-.227.276-.227.687-.227 1.51v7.083c0 .822 0 1.232.227 1.509.042.05.088.097.139.139.276.227.687.227 1.509.227ZM15.625 14.167h-3.958c-.92 0-1.667.746-1.667 1.666V8.958c0-2.465 0-3.698.681-4.528.125-.152.264-.291.416-.416.83-.68 2.062-.68 4.528-.68.822 0 1.233 0 1.51.226.05.042.096.088.138.139.227.276.227.687.227 1.51v7.083c0 .822 0 1.232-.227 1.509-.041.05-.088.097-.139.139-.276.227-.687.227-1.509.227Z"/></svg>