<svg xmlns="http://www.w3.org/2000/svg" width="18" height="18" fill="none"><path fill="#4172F6" fill-rule="evenodd" d="M2.585 6.873c-.335.648-.335 1.498-.335 3.198 0 2.268 0 3.401.446 4.265a4 4 0 0 0 1.718 1.718c.864.446 1.997.446 4.265.446h.642c2.268 0 3.401 0 4.265-.446a4 4 0 0 0 1.718-1.718c.446-.864.446-1.997.446-4.265 0-1.7 0-2.55-.335-3.198a3 3 0 0 0-1.288-1.288c-.648-.335-1.498-.335-3.198-.335H7.07c-1.7 0-2.55 0-3.198.335a3 3 0 0 0-1.288 1.288ZM9 10.75a.25.25 0 1 0 0-.5.25.25 0 0 0 0 .5Zm2.25-.25A2.25 2.25 0 0 1 10 12.516v1.734H8v-1.734a2.25 2.25 0 1 1 3.25-2.016Z" clip-rule="evenodd"/><path stroke="#4172F6" stroke-linecap="round" stroke-width="2" d="M12.374 6v0a3.533 3.533 0 0 0-1.52-3.518l-.281-.188a4.055 4.055 0 0 0-4.909.306l-.662.573"/></svg>