<svg xmlns="http://www.w3.org/2000/svg" width="23" height="21" fill="none"><g stroke="#E00909" clip-path="url(#a)"><path d="M15.707 12.915h5.27c.978 0 1.013-.733 1.013-1.676V2.757c0-.907-.035-1.675-1.012-1.675h-5.27c-.978 0-1.013.733-1.013 1.675v8.482c0 .908.035 1.676 1.012 1.676Z" clip-rule="evenodd"/><path d="M14.765 2.339h-.489c-1.326.035-2.199-1.99-3.211-1.99H3.176C2.2.349 1.99 1.815 2.024 2.443c0 0-1.221.559-.663 2.793-.07.035-.698.628-.698 1.78 0 1.152.663 1.71.663 1.71s-.663.733-.663 1.815c0 1.082.943 1.676 1.92 1.676H5.48c2.513 0 2.304 1.36 2.304 1.36s.279 3.526 1.186 5.167c1.117 2.024 3.351 1.361 2.514-1.292-.629-1.954 2.199-4.886 3.246-5.864"/></g><defs><clipPath id="a"><path fill="#fff" d="M0 0h22.339v20.594H0z"/></clipPath></defs></svg>