<svg xmlns="http://www.w3.org/2000/svg" width="23" height="21" fill="none"><g stroke="#64CB8C" clip-path="url(#a)"><path d="M6.632 7.679h-5.27c-.978 0-1.013.733-1.013 1.675v8.482c0 .908.035 1.676 1.012 1.676h5.27c.978 0 1.013-.733 1.013-1.676V9.354c0-.907-.035-1.675-1.012-1.675Z" clip-rule="evenodd"/><path d="M7.574 18.255h.489c1.326-.035 2.199 1.99 3.211 1.99h7.889c.977 0 1.186-1.466 1.152-2.095 0 0 1.221-.558.663-2.792.07-.035.698-.628.698-1.78 0-1.152-.663-1.71-.663-1.71s.663-.733.663-1.816c0-1.082-.943-1.675-1.92-1.675H16.86c-2.513 0-2.304-1.361-2.304-1.361s-.279-3.526-1.187-5.166C12.252-.175 10.018.489 10.855 3.14c.629 1.955-2.199 4.887-3.246 5.864"/></g><defs><clipPath id="a"><path fill="#fff" d="M22.339 20.594H0V0h22.339z"/></clipPath></defs></svg>