<svg width="18" height="18" viewBox="0 0 18 18" fill="none" xmlns="http://www.w3.org/2000/svg">
<path fill-rule="evenodd" clip-rule="evenodd" d="M8 6H4.125C3.30313 6 2.89219 6 2.61561 6.22699C2.56497 6.26854 2.51854 6.31497 2.47699 6.36561C2.25 6.64219 2.25 7.05313 2.25 7.875C2.25 8.69687 2.25 9.10781 2.47699 9.38439C2.51103 9.42587 2.54835 9.46453 2.58856 9.5H8V6ZM4.5 11.5V13.75C4.5 14.6928 4.5 15.1642 4.79289 15.4571C5.08579 15.75 5.55719 15.75 6.5 15.75H8V11.5H4.5ZM10 15.75H11.5C12.4428 15.75 12.9142 15.75 13.2071 15.4571C13.5 15.1642 13.5 14.6928 13.5 13.75V11.5H10V15.75ZM15.4114 9.5C15.4517 9.46453 15.489 9.42587 15.523 9.38439C15.75 9.10781 15.75 8.69687 15.75 7.875C15.75 7.05313 15.75 6.64219 15.523 6.36561C15.4815 6.31497 15.435 6.26854 15.3844 6.22699C15.1078 6 14.6969 6 13.875 6H10V9.5H15.4114Z" fill="#4172F6"/>
<path d="M14.25 3.47434V3.33776C14.25 2.43366 13.3643 1.79525 12.5065 2.08115C11.4336 2.4388 10.4586 3.04135 9.65892 3.84108L9 4.5V5.25H11.6754C11.8904 5.25 12.104 5.21534 12.3079 5.14737L13.277 4.82434C13.8581 4.63065 14.25 4.08685 14.25 3.47434Z" fill="#4172F6"/>
<path d="M3.75 3.47434V3.33776C3.75 2.43366 4.63574 1.79525 5.49345 2.08115C6.5664 2.4388 7.54135 3.04135 8.34108 3.84108L9 4.5V5.25H6.32456C6.10959 5.25 5.89603 5.21534 5.6921 5.14737L4.72302 4.82434C4.14194 4.63065 3.75 4.08685 3.75 3.47434Z" fill="#4172F6"/>
</svg>
