<svg xmlns="http://www.w3.org/2000/svg" width="16" height="16" fill="none"><path fill="#4172F6" d="M13.333 3.667a1 1 0 1 0 0-2v2Zm-9.667 0h9.667v-2H3.666v2Zm0 3.333H9V5H3.666v2ZM3 4.333c0-.368.298-.666.666-.666v-2A2.667 2.667 0 0 0 1 4.333h2Zm-2 0A2.667 2.667 0 0 0 3.666 7V5A.667.667 0 0 1 3 4.333H1Z"/><path stroke="#4172F6" stroke-width="2" d="M2 8V4.333"/><path fill="#4172F6" stroke="#4172F6" d="M2 5.5h-.5v6.533c0 .443 0 .825.041 1.13.044.329.144.643.398.898l.354-.354-.354.354c.255.255.57.354.897.398.306.041.688.041 1.131.041H12.033c.443 0 .825 0 1.13-.041.329-.044.643-.143.898-.398s.354-.57.398-.897c.041-.306.041-.688.041-1.131V11.5H12a1.5 1.5 0 0 1 0-3h2.5v-.533c0-.443 0-.825-.041-1.13-.044-.329-.143-.643-.398-.898-.255-.254-.57-.354-.897-.398-.306-.041-.688-.041-1.131-.041H2Z"/></svg>